<?xml version="1.0" ?>
<!-- Generator: Adobe Illustrator 16.0.3, SVG Export Plug-In . SVG Version: 6.00 Build 0)  -->
<!DOCTYPE svg
  PUBLIC '-//W3C//DTD SVG 1.1//EN'
  'http://www.w3.org/Graphics/SVG/1.1/DTD/svg11.dtd'>
<svg height="250px" style="enable-background:new 0 0 244.8 250;" version="1.1" viewBox="0 0 244.8 250" width="244.8px" x="0px" xml:space="preserve" xmlns="http://www.w3.org/2000/svg" xmlns:xlink="http://www.w3.org/1999/xlink" y="0px">
<style type="text/css">


	.unusedb59deea6{opacity:0.unusedb59e42a6;fill:url(#bs2_input_l_1_);stroke:#BCBEC0;stroke-miterlimit:10;}
	.unfocused_x5F_{fill:#E6E7E8;}
	.unusedb59e74a6{opacity:0.unusedb59e86a6;fill:url(#fn_f_input_2_);stroke:#BCBEC0;stroke-miterlimit:10;}
	.focused_x5F_{opacity:0.unusedb59ea8a6;fill:url(#focused_x5F_style_15_);stroke:#BCBEC0;stroke-miterlimit:10;}
	.unusedb59eb8a6{opacity:0.unusedb59ec8a6;fill:url(#focused_x5F_style_16_);stroke:#BCBEC0;stroke-miterlimit:10;}
	.unusedb59edaa6{opacity:0.unusedb59eeaa6;fill:url(#focused_x5F_style_17_);stroke:#BCBEC0;stroke-miterlimit:10;}
	.unusedb59efca6{opacity:0.unusedb59f04a6;fill:url(#focused_x5F_style_18_);stroke:#BCBEC0;stroke-miterlimit:10;}
	.unusedb59f1ca6{opacity:0.unusedb59f2ea6;fill:url(#focused_x5F_style_19_);stroke:#BCBEC0;stroke-miterlimit:10;}
	.unusedb59f3ea6{opacity:0.unusedb59f46a6;fill:url(#assign1_inputvar_1_);stroke:#BCBEC0;stroke-miterlimit:10;}
	.unusedb59f58a6{opacity:0.unusedb59f68a6;fill:url(#focused_x5F_style_20_);stroke:#BCBEC0;stroke-miterlimit:10;}
	.unusedb59f7aa6{opacity:0.unusedb59f8aa6;fill:url(#focused_x5F_style_21_);stroke:#BCBEC0;stroke-miterlimit:10;}
	.unusedb59f9aa6{opacity:0.unusedb59fa2a6;fill:url(#focused_x5F_style_22_);stroke:#BCBEC0;stroke-miterlimit:10;}
	.unusedb59fb4a6{opacity:0.unusedb59fc4a6;fill:url(#focused_x5F_style_23_);stroke:#BCBEC0;stroke-miterlimit:10;}
	.unusedb59fd6a6{opacity:0.unusedb59fe6a6;fill:url(#focused_x5F_style_24_);stroke:#BCBEC0;stroke-miterlimit:10;}
	.unusedb59ff6a6{opacity:0.unusedb5a000a6;fill:url(#focused_x5F_style_25_);stroke:#BCBEC0;stroke-miterlimit:10;}
	.unusedb5a010a6{opacity:0.unusedb5a020a6;fill:url(#focused_x5F_style_26_);stroke:#BCBEC0;stroke-miterlimit:10;}
	.unusedb5a032a6{opacity:0.unusedb5a042a6;fill:url(#focused_x5F_style_27_);stroke:#BCBEC0;stroke-miterlimit:10;}
	.unusedb5a054a6{opacity:0.unusedb5a05ca6;fill:url(#focused_x5F_style_28_);stroke:#BCBEC0;stroke-miterlimit:10;}
	.unusedb5a06ca6{opacity:0.unusedb5a07ea6;fill:url(#focused_x5F_style_29_);stroke:#BCBEC0;stroke-miterlimit:10;}
	.unusedb5a08ea6{opacity:0.unusedb5a09ea6;fill:url(#ms_input_r_1_);stroke:#BCBEC0;stroke-miterlimit:10;}
	.unusedb5a0b0a6{opacity:0.unusedb5a0b8a6;fill:url(#ms_selector_1_);stroke:#BCBEC0;stroke-miterlimit:10;}
	.unusedb5a0c8a6{fill:#231F20;}
	.unusedb5a0daa6{opacity:0.unusedb5a0eaa6;fill:url(#assign1_inputval_1_);stroke:#BCBEC0;stroke-miterlimit:10;}
	.unusedb5a0faa6{opacity:0.unusedb5a10ca6;fill:url(#ms_input_l_1_);stroke:#BCBEC0;stroke-miterlimit:10;}
	.unusedb5a11ca6{opacity:0.unusedb5a124a6;fill:url(#focused_1_);stroke:#BCBEC0;stroke-miterlimit:10;}
	.unusedb5a136a6{opacity:0.unusedb5a146a6;fill:url(#assign2_inputvar_1_);stroke:#BCBEC0;stroke-miterlimit:10;}
	.unusedb5a158a6{font-family:'TimesNewRomanPSMT';}
	.unusedb5a168a6{opacity:0.unusedb5a178a6;fill:url(#focus);}
	.st28_1745526487043590559{fill:#FFFFFF;stroke:#BCBEC0;stroke-miterlimit:10;}
	.unusedb5a19aa6{opacity:0.unusedb5a1aca6;fill:url(#bs1_input_r_1_);stroke:#BCBEC0;stroke-miterlimit:10;}
	.unusedb5a1bca6{opacity:0.unusedb5a1c4a6;fill:url(#bs1_selector_1_);stroke:#BCBEC0;stroke-miterlimit:10;}
	.unusedb5a1d6a6{opacity:0.unusedb5a1e6a6;fill:url(#assign2_inputval_1_);stroke:#BCBEC0;stroke-miterlimit:10;}
	.st32_1745526487043590559{fill:none;}
	.unusedb5a208a6{opacity:0.unusedb5a210a6;fill:url(#bs1_input_l_1_);stroke:#BCBEC0;stroke-miterlimit:10;}
	.unusedb5a228a6{opacity:0.unusedb5a232a6;fill:url(#input_filler_1_);stroke:#BCBEC0;stroke-miterlimit:10;}
	.unusedb5a242a6{opacity:0.unusedb5a252a6;fill:none;}
	.unusedb5a264a6{opacity:0.unusedb5a26ca6;fill:url(#bs2_selector_1_);stroke:#BCBEC0;stroke-miterlimit:10;}
	.unusedb5a27ca6{font-size:15;}
	.unusedb5a28ea6{opacity:0.unusedb5a29ea6;fill:url(#bs2_input_r_1_);stroke:#BCBEC0;stroke-miterlimit:10;}
	.st39_1745526487043590559{fill:#A7A9AC;}


</style>
<pattern height="36.1" id="focus" patternUnits="userSpaceOnUse" style="overflow:visible;" viewBox="38.7 -67.9 36.1 36.1" width="36.1" x="-539" y="-823">
<g>
<polygon class="st32_1745526487043590559" points="38.7,-67.9 74.9,-67.9 74.9,-31.8 38.7,-31.8   "/>
<g>
<polygon class="st39_1745526487043590559" points="104,-40.8 65.8,-2.6 66.9,-1.4 105.2,-39.6    "/>
<polygon class="st39_1745526487043590559" points="111.5,-43 73.3,-4.8 74.4,-3.6 112.6,-41.8    "/>
<polygon class="st39_1745526487043590559" points="97.8,-47.5 59.6,-9.3 60.7,-8.2 99,-46.4    "/>
<polygon class="st39_1745526487043590559" points="106.5,-51.7 68.3,-13.5 69.5,-12.4 107.7,-50.6    "/>
<polygon class="st39_1745526487043590559" points="110.5,-51.6 72.3,-13.3 73.4,-12.2 111.7,-50.4    "/>
</g>
<g>
<polygon class="st39_1745526487043590559" points="81.5,-40.6 43.2,-2.3 44.4,-1.2 82.6,-39.4    "/>
<polygon class="st39_1745526487043590559" points="84.4,-39.4 46.2,-1.2 47.4,0 85.6,-38.2    "/>
<polygon class="st39_1745526487043590559" points="67.9,-40.8 29.6,-2.6 30.8,-1.4 69,-39.6    "/>
<polygon class="st39_1745526487043590559" points="75.3,-43 37.1,-4.8 38.3,-3.6 76.5,-41.8    "/>
<polygon class="st39_1745526487043590559" points="80.6,-43.8 42.3,-5.6 43.5,-4.5 81.7,-42.7    "/>
<polygon class="st39_1745526487043590559" points="61.7,-47.5 23.4,-9.3 24.6,-8.2 62.8,-46.4    "/>
<polygon class="st39_1745526487043590559" points="70.4,-51.7 32.2,-13.5 33.3,-12.4 71.5,-50.6    "/>
<polygon class="st39_1745526487043590559" points="74.4,-51.6 36.1,-13.3 37.3,-12.2 75.5,-50.4    "/>
</g>
<g>
<polygon class="st39_1745526487043590559" points="45.3,-40.6 7.1,-2.3 8.3,-1.2 46.5,-39.4    "/>
<polygon class="st39_1745526487043590559" points="48.3,-39.4 10.1,-1.2 11.2,0 49.5,-38.2    "/>
<polygon class="st39_1745526487043590559" points="39.2,-43 1,-4.8 2.1,-3.6 40.3,-41.8    "/>
<polygon class="st39_1745526487043590559" points="44.4,-43.8 6.2,-5.6 7.3,-4.5 45.6,-42.7    "/>
<polygon class="st39_1745526487043590559" points="38.2,-51.6 0,-13.3 1.2,-12.2 39.4,-50.4    "/>
</g>
<g>
<polygon class="st39_1745526487043590559" points="104,-76.9 65.8,-38.7 66.9,-37.6 105.2,-75.8    "/>
<polygon class="st39_1745526487043590559" points="111.5,-79.1 73.3,-40.9 74.4,-39.8 112.6,-78    "/>
<polygon class="st39_1745526487043590559" points="97.8,-83.7 59.6,-45.4 60.7,-44.3 99,-82.5    "/>
<polygon class="st39_1745526487043590559" points="106.5,-87.9 68.3,-49.6 69.5,-48.5 107.7,-86.7    "/>
<polygon class="st39_1745526487043590559" points="110.5,-87.7 72.3,-49.5 73.4,-48.3 111.7,-86.5    "/>
</g>
<g>
<polygon class="st39_1745526487043590559" points="81.5,-76.7 43.2,-38.5 44.4,-37.3 82.6,-75.5    "/>
<polygon class="st39_1745526487043590559" points="84.4,-75.5 46.2,-37.3 47.4,-36.1 85.6,-74.4    "/>
<polygon class="st39_1745526487043590559" points="67.9,-76.9 29.6,-38.7 30.8,-37.6 69,-75.8    "/>
<polygon class="st39_1745526487043590559" points="75.3,-79.1 37.1,-40.9 38.3,-39.8 76.5,-78    "/>
<polygon class="st39_1745526487043590559" points="80.6,-80 42.3,-41.7 43.5,-40.6 81.7,-78.8    "/>
<polygon class="st39_1745526487043590559" points="61.7,-83.7 23.4,-45.4 24.6,-44.3 62.8,-82.5    "/>
<polygon class="st39_1745526487043590559" points="70.4,-87.9 32.2,-49.6 33.3,-48.5 71.5,-86.7    "/>
<polygon class="st39_1745526487043590559" points="74.4,-87.7 36.1,-49.5 37.3,-48.3 75.5,-86.5    "/>
</g>
<g>
<polygon class="st39_1745526487043590559" points="45.3,-76.7 7.1,-38.5 8.3,-37.3 46.5,-75.5    "/>
<polygon class="st39_1745526487043590559" points="48.3,-75.5 10.1,-37.3 11.2,-36.1 49.5,-74.4    "/>
<polygon class="st39_1745526487043590559" points="39.2,-79.1 1,-40.9 2.1,-39.8 40.3,-78    "/>
<polygon class="st39_1745526487043590559" points="44.4,-80 6.2,-41.7 7.3,-40.6 45.6,-78.8    "/>
<polygon class="st39_1745526487043590559" points="38.2,-87.7 0,-49.5 1.2,-48.3 39.4,-86.5    "/>
</g>
</g>
</pattern>
<g id="block_fn_body">
<polygon class="st28_1745526487043590559" id="fn_body" points="198.8,125.1 215,141.5 47,141.5 30.8,125.1 47.2,108.5 215.2,108.5  "/>
<rect class="st32_1745526487043590559" height="17" width="82.5" x="55.8" y="116.5"/>
<text class="st26 st37" id="fn_text_1_" transform="matrix(1 0 0 1 55.75 126.9248)">fn name</text>
<pattern id="focused_x5F_style_15_" patternTransform="matrix(1 0 0 1 48.7969 -180.7124)" xlink:href="#focus"/>
</g>
</svg>
