<?xml version="1.0" ?>
<!-- Generator: Adobe Illustrator 16.0.3, SVG Export Plug-In . SVG Version: 6.00 Build 0)  -->
<!DOCTYPE svg
  PUBLIC '-//W3C//DTD SVG 1.1//EN'
  'http://www.w3.org/Graphics/SVG/1.1/DTD/svg11.dtd'>
<svg height="250px" style="enable-background:new 0 0 250 250;" version="1.1" viewBox="0 0 250 250" width="250px" x="0px" xml:space="preserve" xmlns="http://www.w3.org/2000/svg" xmlns:xlink="http://www.w3.org/1999/xlink" y="0px">
<style type="text/css">


	.unused66c95ea7{opacity:0.unused66c9a0a7;fill:url(#bs2_input_l_1_);stroke:#BCBEC0;stroke-miterlimit:10;}
	.unfocused_x5F_{fill:#E6E7E8;}
	.unused66c9dca7{opacity:0.unused66c9eca7;fill:url(#fn_f_input_2_);stroke:#BCBEC0;stroke-miterlimit:10;}
	.focused_x5F_{opacity:0.unused66ca1ea7;fill:url(#focused_x5F_style_15_);stroke:#BCBEC0;stroke-miterlimit:10;}
	.unused66ca30a7{opacity:0.unused66ca48a7;fill:url(#focused_x5F_style_16_);stroke:#BCBEC0;stroke-miterlimit:10;}
	.unused66ca5aa7{opacity:0.unused66ca6aa7;fill:url(#focused_x5F_style_17_);stroke:#BCBEC0;stroke-miterlimit:10;}
	.unused66ca7ca7{opacity:0.unused66ca8ca7;fill:url(#focused_x5F_style_18_);stroke:#BCBEC0;stroke-miterlimit:10;}
	.unused66caa6a7{opacity:0.unused66caaea7;fill:url(#focused_x5F_style_19_);stroke:#BCBEC0;stroke-miterlimit:10;}
	.unused66cac6a7{opacity:0.unused66cacea7;fill:url(#assign1_inputvar_1_);stroke:#BCBEC0;stroke-miterlimit:10;}
	.unused66cae8a7{opacity:0.unused66caf8a7;fill:url(#focused_x5F_style_20_);stroke:#BCBEC0;stroke-miterlimit:10;}
	.unused66cb0aa7{opacity:0.unused66cb1aa7;fill:url(#focused_x5F_style_21_);stroke:#BCBEC0;stroke-miterlimit:10;}
	.unused66cb34a7{opacity:0.unused66cb44a7;fill:url(#focused_x5F_style_22_);stroke:#BCBEC0;stroke-miterlimit:10;}
	.unused66cb56a7{font-size:14.unused66cb66a7;}
	.unused66cb76a7{opacity:0.unused66cb88a7;fill:url(#focused_x5F_style_23_);stroke:#BCBEC0;stroke-miterlimit:10;}
	.unused66cb98a7{opacity:0.unused66cbaaa7;fill:url(#focused_x5F_style_24_);stroke:#BCBEC0;stroke-miterlimit:10;}
	.unused66cbbaa7{opacity:0.unused66cbcaa7;fill:url(#focused_x5F_style_25_);stroke:#BCBEC0;stroke-miterlimit:10;}
	.unused66cbdca7{opacity:0.unused66cbeca7;fill:url(#focused_x5F_style_26_);stroke:#BCBEC0;stroke-miterlimit:10;}
	.unused66cbfca7{opacity:0.unused66cc0ea7;fill:url(#focused_x5F_style_27_);stroke:#BCBEC0;stroke-miterlimit:10;}
	.unused66cc1ea7{opacity:0.unused66cc30a7;fill:url(#focused_x5F_style_28_);stroke:#BCBEC0;stroke-miterlimit:10;}
	.unused66cc40a7{opacity:0.unused66cc50a7;fill:url(#focused_x5F_style_29_);stroke:#BCBEC0;stroke-miterlimit:10;}
	.unused66cc62a7{opacity:0.unused66cc7aa7;fill:url(#ms_input_r_1_);stroke:#BCBEC0;stroke-miterlimit:10;}
	.unused66cc8ca7{opacity:0.unused66cc9ca7;fill:url(#ms_selector_1_);stroke:#BCBEC0;stroke-miterlimit:10;}
	.unused66ccaea7{fill:#231F20;}
	.unused66ccbea7{opacity:0.unused66cccea7;fill:url(#assign1_inputval_1_);stroke:#BCBEC0;stroke-miterlimit:10;}
	.unused66cce0a7{opacity:0.unused66cd0aa7;fill:url(#ms_input_l_1_);stroke:#BCBEC0;stroke-miterlimit:10;}
	.unused66cd1aa7{opacity:0.unused66cd2aa7;fill:url(#focused_1_);stroke:#BCBEC0;stroke-miterlimit:10;}
	.unused66cd3ca7{opacity:0.unused66cd4ca7;fill:url(#assign2_inputvar_1_);stroke:#BCBEC0;stroke-miterlimit:10;}
	.unused66cd5ea7{font-family:'TimesNewRomanPSMT';}
	.unused66cd76a7{opacity:0.unused66cd88a7;fill:url(#focus);}
	.st29_1649914441399385100{fill:#FFFFFF;stroke:#BCBEC0;stroke-miterlimit:10;}
	.unused66cdb2a7{opacity:0.unused66cdc2a7;fill:url(#bs1_input_r_1_);stroke:#BCBEC0;stroke-miterlimit:10;}
	.unused66cdd2a7{opacity:0.unused66cde4a7;fill:url(#bs1_selector_1_);stroke:#BCBEC0;stroke-miterlimit:10;}
	.unused66cdf4a7{opacity:0.unused66ce06a7;fill:url(#assign2_inputval_1_);stroke:#BCBEC0;stroke-miterlimit:10;}
	.st33_1649914441399385100{fill:none;}
	.unused66ce2ea7{opacity:0.unused66ce40a7;fill:url(#bs1_input_l_1_);stroke:#BCBEC0;stroke-miterlimit:10;}
	.unused66ce50a7{opacity:0.unused66ce62a7;fill:url(#input_filler_1_);stroke:#BCBEC0;stroke-miterlimit:10;}
	.st36_1649914441399385100{opacity:0.unused66ce82a7;fill:none;}
	.unused66ce9ca7{opacity:0.unused66ceaca7;fill:url(#bs2_selector_1_);stroke:#BCBEC0;stroke-miterlimit:10;}
	.unused66cebea7{opacity:0.unused66cecea7;fill:url(#bs2_input_r_1_);stroke:#BCBEC0;stroke-miterlimit:10;}
	.st39_1649914441399385100{fill:#A7A9AC;}


</style>
<pattern height="36.1" id="focus" patternUnits="userSpaceOnUse" style="overflow:visible;" viewBox="38.7 -67.9 36.1 36.1" width="36.1" y="-272">
<g>
<polygon class="st33_1649914441399385100" points="38.7,-67.9 74.9,-67.9 74.9,-31.8 38.7,-31.8   "/>
<g>
<polygon class="st39_1649914441399385100" points="104,-40.8 65.8,-2.6 66.9,-1.4 105.2,-39.6    "/>
<polygon class="st39_1649914441399385100" points="111.5,-43 73.3,-4.8 74.4,-3.6 112.6,-41.8    "/>
<polygon class="st39_1649914441399385100" points="97.8,-47.5 59.6,-9.3 60.7,-8.2 99,-46.4    "/>
<polygon class="st39_1649914441399385100" points="106.5,-51.7 68.3,-13.5 69.5,-12.4 107.7,-50.6    "/>
<polygon class="st39_1649914441399385100" points="110.5,-51.6 72.3,-13.3 73.4,-12.2 111.7,-50.4    "/>
</g>
<g>
<polygon class="st39_1649914441399385100" points="81.5,-40.6 43.2,-2.3 44.4,-1.2 82.6,-39.4    "/>
<polygon class="st39_1649914441399385100" points="84.4,-39.4 46.2,-1.2 47.4,0 85.6,-38.2    "/>
<polygon class="st39_1649914441399385100" points="67.9,-40.8 29.6,-2.6 30.8,-1.4 69,-39.6    "/>
<polygon class="st39_1649914441399385100" points="75.3,-43 37.1,-4.8 38.3,-3.6 76.5,-41.8    "/>
<polygon class="st39_1649914441399385100" points="80.6,-43.8 42.3,-5.6 43.5,-4.5 81.7,-42.7    "/>
<polygon class="st39_1649914441399385100" points="61.7,-47.5 23.4,-9.3 24.6,-8.2 62.8,-46.4    "/>
<polygon class="st39_1649914441399385100" points="70.4,-51.7 32.2,-13.5 33.3,-12.4 71.5,-50.6    "/>
<polygon class="st39_1649914441399385100" points="74.4,-51.6 36.1,-13.3 37.3,-12.2 75.5,-50.4    "/>
</g>
<g>
<polygon class="st39_1649914441399385100" points="45.3,-40.6 7.1,-2.3 8.3,-1.2 46.5,-39.4    "/>
<polygon class="st39_1649914441399385100" points="48.3,-39.4 10.1,-1.2 11.2,0 49.5,-38.2    "/>
<polygon class="st39_1649914441399385100" points="39.2,-43 1,-4.8 2.1,-3.6 40.3,-41.8    "/>
<polygon class="st39_1649914441399385100" points="44.4,-43.8 6.2,-5.6 7.3,-4.5 45.6,-42.7    "/>
<polygon class="st39_1649914441399385100" points="38.2,-51.6 0,-13.3 1.2,-12.2 39.4,-50.4    "/>
</g>
<g>
<polygon class="st39_1649914441399385100" points="104,-76.9 65.8,-38.7 66.9,-37.6 105.2,-75.8    "/>
<polygon class="st39_1649914441399385100" points="111.5,-79.1 73.3,-40.9 74.4,-39.8 112.6,-78    "/>
<polygon class="st39_1649914441399385100" points="97.8,-83.7 59.6,-45.4 60.7,-44.3 99,-82.5    "/>
<polygon class="st39_1649914441399385100" points="106.5,-87.9 68.3,-49.6 69.5,-48.5 107.7,-86.7    "/>
<polygon class="st39_1649914441399385100" points="110.5,-87.7 72.3,-49.5 73.4,-48.3 111.7,-86.5    "/>
</g>
<g>
<polygon class="st39_1649914441399385100" points="81.5,-76.7 43.2,-38.5 44.4,-37.3 82.6,-75.5    "/>
<polygon class="st39_1649914441399385100" points="84.4,-75.5 46.2,-37.3 47.4,-36.1 85.6,-74.4    "/>
<polygon class="st39_1649914441399385100" points="67.9,-76.9 29.6,-38.7 30.8,-37.6 69,-75.8    "/>
<polygon class="st39_1649914441399385100" points="75.3,-79.1 37.1,-40.9 38.3,-39.8 76.5,-78    "/>
<polygon class="st39_1649914441399385100" points="80.6,-80 42.3,-41.7 43.5,-40.6 81.7,-78.8    "/>
<polygon class="st39_1649914441399385100" points="61.7,-83.7 23.4,-45.4 24.6,-44.3 62.8,-82.5    "/>
<polygon class="st39_1649914441399385100" points="70.4,-87.9 32.2,-49.6 33.3,-48.5 71.5,-86.7    "/>
<polygon class="st39_1649914441399385100" points="74.4,-87.7 36.1,-49.5 37.3,-48.3 75.5,-86.5    "/>
</g>
<g>
<polygon class="st39_1649914441399385100" points="45.3,-76.7 7.1,-38.5 8.3,-37.3 46.5,-75.5    "/>
<polygon class="st39_1649914441399385100" points="48.3,-75.5 10.1,-37.3 11.2,-36.1 49.5,-74.4    "/>
<polygon class="st39_1649914441399385100" points="39.2,-79.1 1,-40.9 2.1,-39.8 40.3,-78    "/>
<polygon class="st39_1649914441399385100" points="44.4,-80 6.2,-41.7 7.3,-40.6 45.6,-78.8    "/>
<polygon class="st39_1649914441399385100" points="38.2,-87.7 0,-49.5 1.2,-48.3 39.4,-86.5    "/>
</g>
</g>
</pattern>
<g id="param">
<polygon class="st29_1649914441399385100" id="param_body" points="184.1,138.9 170.7,152.5 71.1,152.5 57.8,139.1 71.2,125.5 170.8,125.5  "/>
<rect class="st36_1649914441399385100" height="18" id="param_textbox" width="84" x="78" y="131"/>
<rect class="st33_1649914441399385100" height="12.9" width="73" x="86.7" y="132.7"/>
<text class="st22 st27 st12" id="param_text" transform="matrix(1 0 0 1 86.6885 142.9121)">parameter</text>
<pattern id="focused_x5F_style_15_" patternTransform="matrix(1 0 0 1 48.7969 -180.7124)" xlink:href="#focus"/>
</g>
</svg>
