<?xml version="1.0" encoding="UTF-8" standalone="no"?>
<!-- Created with Inkscape (http://www.inkscape.org/) -->
<svg xmlns:dc="http://purl.org/dc/elements/1.1/" xmlns:cc="http://creativecommons.org/ns#" xmlns:rdf="http://www.w3.org/1999/02/22-rdf-syntax-ns#" xmlns:svg="http://www.w3.org/2000/svg" xmlns="http://www.w3.org/2000/svg" xmlns:sodipodi="http://sodipodi.sourceforge.net/DTD/sodipodi-0.dtd" xmlns:inkscape="http://www.inkscape.org/namespaces/inkscape" width="2028.1042" height="1640.609" id="svg2" version="1.1" inkscape:version="0.48.0 r9654" sodipodi:docname="logo_vectorized.svg">
  <defs id="defs4"/>
  <sodipodi:namedview id="base" pagecolor="#ffffff" bordercolor="#666666" borderopacity="1.0" inkscape:pageopacity="0.0" inkscape:pageshadow="2" inkscape:zoom="0.175" inkscape:cx="1883.5188" inkscape:cy="802.04101" inkscape:document-units="px" inkscape:current-layer="layer1" showgrid="false" units="in" inkscape:showpageshadow="false" fit-margin-top="0" fit-margin-left="0" fit-margin-right="0" fit-margin-bottom="0" inkscape:window-width="708" inkscape:window-height="570" inkscape:window-x="489" inkscape:window-y="59" inkscape:window-maximized="0"/>
  <metadata id="metadata7">
    <rdf:RDF>
      <cc:Work rdf:about="">
        <dc:format>image/svg+xml</dc:format>
        <dc:type rdf:resource="http://purl.org/dc/dcmitype/StillImage"/>
        <dc:title/>
      </cc:Work>
    </rdf:RDF>
  </metadata>
  <g inkscape:label="Layer 1" inkscape:groupmode="layer" id="layer1" transform="translate(806.90929,-125.62672)">
    <path style="fill:#c7aa36;fill-opacity:1" d="m 781.56711,1765.3975 -6.8363,-0.6949 -81.7829,-81.913 -81.7829,-81.913 -163.293,-361.5 c -89.8112,-198.825 -163.4993,-361.88253 -163.7515,-362.34993 -0.7023,-1.3015 -1.6087,-1.8375 93.1787,55.0988 49.0073,29.4374 90.4541,54.3022 92.1041,55.2551 1.65,0.9529 123.8726,74.35443 271.6059,163.11433 l 268.60589,161.3817 70.2226,82.5 70.2226,82.5 -0.5512,7.8014 -0.5511,7.8016 -11.7619,16.6984 c -76.185,108.1617 -186.11069,192.9936 -321.04869,247.7599 -12.7908,5.1913 -24.2658,9.3748 -25.5,9.2967 -1.2343,-0.078 -5.3204,-0.4547 -9.0803,-0.8371 z" id="path3248"/>
    <path style="fill:#3e3e83;fill-opacity:1" d="m -55.096733,1732.3649 c -131.407797,-21.0115 -250.125697,-67.9343 -349.999997,-138.3362 -20.3974,-14.3783 -52.164,-39.4318 -54.4254,-42.924 -0.7935,-1.2255 -2.3995,-4.8015 -3.5688,-7.9467 l -2.126,-5.7186 46.0739,-93.7177 c 25.3405,-51.5447 45.7301,-94.0077 45.31,-94.3621 -24.1239,-20.3566 -58.9176,-54.1054 -77.8198,-75.483 -52.9117,-59.8408 -93.6961,-127.6943 -120.6939,-200.7999 l -1.034,-2.7999 -9.108,0.5762 c -5.0094,0.3169 -34.533,1.2395 -65.608,2.0502 -31.075,0.8107 -72.5882,1.9651 -92.2516,2.5654 l -35.7517,1.0915 -4.9298,-4.1276 c -5.6949,-4.7679 -6.1541,-5.9079 -11.9065,-29.5559 -10.312,-42.3922 -14.8731,-84.45173 -13.8266,-127.50013 1.499,-61.6671 13.1017,-118.4875 36.4329,-178.4185 5.5259,-14.1943 6.073,-15.1485 11.2706,-19.6549 l 5.4627,-4.7364 93.9694,-14.1144 c 51.6831,-7.763 94.3036,-14.4488 94.7123,-14.8574 0.4086,-0.4087 2.737,-5.4625 5.1742,-11.2307 23.5633,-55.7678 56.6255,-108.5131 100.4179,-160.2 13.693,-16.1615 48.5441,-52.063 62.7262,-64.6167 6.3837,-5.6507 7.798,-7.3941 7,-8.629 -0.55,-0.8511 -17.7545,-25.427 -38.2322,-54.6131 l -37.2322,-53.0656 2.3858,-4.7082 c 1.9179,-3.7848 5.2973,-6.9824 17.2322,-16.3054 41.0013,-32.028 79.0644,-55.7759 128.8464,-80.38806 53.0661,-26.2358 97.4131,-43.0396 155,-58.7319 13.934,-3.797 16.8539,-4.2855 22.6127,-3.7836 6.1363,0.5348 7.033,0.9356 12.4487,5.5651 87.455697,74.7594 98.057497,83.58056 99.938597,83.15406 1.1,-0.2495 10.0548,-2.3019 19.8995004,-4.56096 44.0436996,-10.1069 94.2345196,-17.5769 145.6005226,-21.6699 38.7304,-3.0861 101.32212,-3.0112 147.00002,0.176 l 8.5,0.5931 36.8447,-50.0325 c 20.2646,-27.5179 37.5896,-50.6905 38.5,-51.4947 0.9104,-0.8043 4.2142,-2.0256 7.3418,-2.7142 4.7728,-1.0508 8.1468,-0.9749 21,0.4726 61.9964,6.9817 120.4806,18.9206 171.8135,35.0739 6.325,1.9903 14.2,4.4441 17.5,5.4528 29.6205,9.0542 85.2356,32.4888 119.2558,50.2511 12.0855,6.3099 16.0068,8.8815 18.8692,12.3747 l 3.6133,4.4096 -10.0423,27.75156 c -5.5233,15.2634 -13.4264,37.2016 -17.5625,48.7516 -4.136,11.55 -8.8956,24.7255 -10.5768,29.2788 -1.6812,4.5533 -3.05,8.8283 -3.0418,9.5 0.01,0.6717 5.2957,4.3712 11.75,8.2212 78.93,47.0818 150.5817,110.0424 204.8255,179.9808 l 12.9091,16.6441 12.0003,-0.6075 c 6.6001,-0.3341 47.2136,-1.481 90.25219,-2.5487 l 78.252,-1.9413 5.248,3.3764 c 6.5038,4.1845 7.4589,5.2575 17.8868,20.0962 19.0413,27.0953 37.5969,59.3624 52.0856,90.5737 29.209,62.9214 44.8419,127.3955 47.3939,195.4643 l 0.6734,17.962 -3.1524,5.1212 c -2.9795,4.8404 -3.4671,5.1812 -8.8958,6.2173 -3.1589,0.603 -44.2185,7.4743 -91.2435,15.2698 -47.025,7.7954 -86.4566,14.5277 -87.6257,14.9606 -1.8969,0.7023 -2.2018,1.8442 -2.8327,10.6091 -1.0115,14.0512 -5.1086,44.5402 -8.1054,60.3173 -4.4089,23.21053 -11.1154,48.49513 -20.42509,77.00483 -7.1358,21.8527 -24.2699,60.7069 -38.2407,86.7169 -8.0656,15.0161 -27.6955,47.4991 -31.6716,52.4095 l -1.8644,2.3024 -141.3672,-80.8287 c -77.752,-44.4558 -141.9526,-81.3787 -142.668,-82.0509 -1.0535,-0.9898 0.2225,-3.3924 6.7111,-12.6358 36.4954,-51.99043 58.6429,-110.54973 64.0732,-169.41353 1.4522,-15.7411 1.2358,-49.8724 -0.409,-64.5 -9.7083,-86.3409 -50.4243,-164.497 -119.5835,-229.5458 -58.7346,-55.2437 -138.6933,-98.2881 -224.491,-120.8508 -60.7665,-15.98 -130.2363,-23.2227 -188.01702,-19.6018 -35.8625,2.2473 -64.7764,5.9463 -93.983003,12.0235 -157.18492,32.7066 -283.876917,122.6378 -342.999117,243.4749 -15.2183,31.104 -25.1753,61.3136 -30.5213,92.6021 -15.4314,90.3135 5.9175,178.8613 62.2996,258.39793 24.6154,34.7243 58.7354,68.9999 95.7208,96.1574 75.953797,55.7711 170.329917,91.5619 271.00002,102.7727 47.6804,5.3097 108.57242,4.5247 154.50002,-1.9916 24.6804,-3.5018 56.721,-10.0962 77.6613,-15.9838 5.6717,-1.5946 9.4817,-2.2117 10.0636,-1.6297 0.515,0.515 27.3843,64.3276 59.7095,141.8057 32.3252,77.4782 59.5198,142.6259 60.4325,144.7729 0.9126,2.147 1.4451,4.1178 1.1833,4.3795 -1.0734,1.0736 -42.0005,12.4783 -61.7987,17.221 -57.3322,13.734 -120.9425,22.9718 -178.7515,25.9589 -43.9166,2.2693 -103.54742,1.2338 -142.00002,-2.4657 -8.525,-0.8203 -16.4622,-1.4926 -17.6382,-1.4943 -1.7723,0 -11.684303,16 -57.918203,93.5067 l -55.7801196,93.5097 -7.8833004,2.4903 c -4.3359,1.3696 -9.7727,2.4332 -12.0818,2.3633 -2.3091,-0.07 -14.7734,-1.818 -27.6984,-3.8846 z" id="path3196"/>
  </g>
</svg>